<?xml version="1.0" encoding="UTF-8"?>
<svg xmlns="http://www.w3.org/2000/svg" xmlns:xlink="http://www.w3.org/1999/xlink" width="103px" height="60px" viewBox="0 0 103 60" version="1.1">
<defs>
<linearGradient id="linear0" gradientUnits="userSpaceOnUse" x1="220.03" y1="367.87" x2="208.67" y2="322.11" gradientTransform="matrix(0.3975,0,0,0.160866,-3.681291,-22.00476)">
<stop offset="0" style="stop-color:rgb(100%,100%,100%);stop-opacity:1;"/>
<stop offset="1" style="stop-color:rgb(100%,100%,100%);stop-opacity:0;"/>
</linearGradient>
</defs>
<g id="surface1">
<path style="fill:none;stroke-width:1.8768;stroke-linecap:butt;stroke-linejoin:miter;stroke:rgb(0%,0%,0%);stroke-opacity:1;stroke-miterlimit:4;" d="M 324.677023 201.753875 C 324.677023 201.753875 149.600809 142.568672 149.600809 131.471446 C 149.600809 120.374221 154.524828 126.534548 155.768267 114.213893 C 136.039034 90.781619 155.768267 89.558189 169.313463 82.160039 C 177.951219 103.116667 226.04744 122.835473 226.04744 122.835473 L 335.768499 183.244106 Z M 324.677023 201.753875 " transform="matrix(0.235612,0,0,0.271394,-3.681291,-22.00476)"/>
<path style="fill:none;stroke-width:1.8768;stroke-linecap:butt;stroke-linejoin:miter;stroke:rgb(0%,0%,0%);stroke-opacity:1;stroke-miterlimit:4;" d="M 22.604238 220.234858 C 22.604238 220.234858 21.377378 158.602796 26.301396 147.50557 C 31.241994 136.393951 41.10661 114.213893 46.030629 109.276995 C 50.971226 104.35449 54.668385 103.116667 59.592404 109.276995 C 64.533001 115.437323 64.533001 137.646167 70.68388 146.267747 C 76.851337 154.90372 80.548496 161.064048 92.883411 162.287478 C 105.201747 163.5253 118.780101 157.364973 129.871577 147.50557 C 140.963053 137.646167 148.35737 125.311119 156.995127 122.835473 C 165.632883 120.374221 166.859743 122.835473 181.648378 131.471446 C 196.453591 140.093026 318.509565 185.719752 318.509565 185.719752 L 330.84448 184.496322 L 205.074769 110.514818 C 205.074769 110.514818 306.17465 164.763123 324.677023 174.622526 C 343.162816 184.496322 353.027432 194.355725 362.892049 195.579154 C 372.756665 196.816977 402.333934 189.418827 410.971691 194.355725 C 419.609447 199.27823 428.247203 201.753875 431.927783 211.613278 C 435.624942 221.472681 439.3221 254.764358 439.3221 254.764358 C 439.3221 254.764358 424.533466 274.483163 406.047672 279.420061 C 387.5453 284.356959 297.553473 304.075765 275.353942 300.37669 C 253.154411 296.677615 217.409684 296.677615 202.60447 288.056035 C 187.815835 279.420061 160.692285 278.196632 147.13051 278.196632 C 133.568736 278.196632 73.154179 283.119137 57.122105 275.720986 C 41.10661 268.322836 31.241994 239.968057 26.301396 235.045552 C 21.377378 230.094261 22.604238 220.234858 22.604238 220.234858 Z M 22.604238 220.234858 " transform="matrix(0.235612,0,0,0.271394,-3.681291,-22.00476)"/>
<path style=" stroke:none;fill-rule:evenodd;fill:rgb(0%,0%,0%);fill-opacity:0.227451;" d="M 2.375 35.160156 C 1.730469 33.3125 1.730469 45.523438 2.054688 46.265625 C 35.460938 53.664062 55.054688 48.851562 55.054688 48.851562 C 55.054688 48.851562 30.320312 51.445312 5.265625 42.195312 C 3.015625 39.972656 2.375 35.160156 2.375 35.160156 Z M 2.375 35.160156 "/>
<path style="fill-rule:evenodd;fill:rgb(9.019608%,9.019608%,9.019608%);fill-opacity:1;stroke-width:1.6384;stroke-linecap:butt;stroke-linejoin:miter;stroke:rgb(0%,0%,0%);stroke-opacity:1;stroke-miterlimit:4;" d="M 20.133939 222.307492 L 16.43678 252.375072 C 16.43678 252.375072 16.43678 254.246199 17.680219 260.823932 C 18.907079 267.416059 20.133939 271.172707 27.544835 273.979398 C 34.939153 276.800483 103.974887 287.134864 107.672046 287.134864 C 111.385783 287.134864 139.736193 279.621567 154.524828 281.507088 C 169.313463 283.378216 179.194658 285.263737 186.588975 288.084821 C 193.983293 290.905906 210.015366 299.354766 240.836075 300.29033 C 271.656783 301.225894 304.94779 303.111415 340.692517 295.598118 C 376.453824 288.084821 410.971691 278.686004 423.306606 274.914962 C 435.624942 271.172707 449.186716 261.773889 450.430155 255.196156 C 451.657015 248.618423 454.127314 238.284042 447.959857 230.756352 C 441.792399 223.243055 434.398082 212.908674 434.398082 220.436364 C 434.398082 227.935268 420.836307 227.014097 419.609447 233.577437 C 418.366008 240.15517 420.836307 248.618423 420.836307 249.553987 C 427.003764 247.68286 412.21513 257.067284 390.015598 258.952805 C 367.816067 260.823932 351.800573 271.172707 328.374182 268.351622 C 304.94779 265.530538 258.095008 258.002848 248.230392 258.002848 C 238.365776 258.002848 155.768267 263.645017 129.871577 260.823932 C 103.974887 258.002848 47.274068 248.618423 34.939153 243.926211 C 22.604238 239.219606 20.133939 222.307492 20.133939 222.307492 Z M 20.133939 222.307492 " transform="matrix(0.235612,0,0,0.271394,-3.681291,-22.00476)"/>
<path style="fill:none;stroke-width:5.6303;stroke-linecap:round;stroke-linejoin:round;stroke:rgb(0%,0%,0%);stroke-opacity:1;stroke-miterlimit:4;" d="M 329.601041 178.321601 L 309.871809 191.880079 L 290.142577 157.364973 L 239.592636 162.287478 L 235.895477 126.534548 L 180.421518 136.393951 L 192.756433 116.675145 L 216.166245 115.437323 L 216.166245 151.204645 L 258.410013 139.574868 L 280.29454 178.321601 Z M 329.601041 178.321601 " transform="matrix(0.235612,0,0,0.271394,-3.681291,-22.00476)"/>
<path style=" stroke:none;fill-rule:evenodd;fill:url(#linear0);" d="M 75.539062 29.527344 C 75.539062 29.527344 77.863281 30.867188 80.476562 31.203125 C 83.09375 31.535156 90.644531 30.53125 90.644531 30.53125 C 90.644531 30.53125 93.839844 30.53125 90.9375 32.539062 C 88.03125 34.546875 65.953125 40.570312 69.148438 38.5625 C 72.34375 36.554688 80.476562 35.550781 82.800781 33.878906 C 85.125 32.207031 75.539062 29.527344 75.539062 29.527344 Z M 75.539062 29.527344 "/>
<path style=" stroke:none;fill-rule:evenodd;fill:rgb(0%,0%,0%);fill-opacity:0.054902;" d="M 47.832031 21.707031 C 47.832031 21.707031 73.398438 31.074219 69.621094 33.082031 C 65.84375 35.089844 47.832031 21.707031 47.832031 21.707031 Z M 47.832031 21.707031 "/>
<path style="fill:none;stroke-width:5.6303;stroke-linecap:round;stroke-linejoin:round;stroke:rgb(0%,0%,0%);stroke-opacity:1;stroke-miterlimit:4;" d="M 191.512994 116.675145 C 180.421518 112.97607 184.118676 112.97607 174.25406 115.437323 C 164.389444 117.912968 154.524828 130.233623 165.632883 131.471446 C 176.724359 132.694876 185.345536 127.772371 191.512994 116.675145 Z M 191.512994 116.675145 " transform="matrix(0.235612,0,0,0.271394,-3.681291,-22.00476)"/>
<path style="fill:none;stroke-width:5.6303;stroke-linecap:round;stroke-linejoin:round;stroke:rgb(0%,0%,0%);stroke-opacity:1;stroke-miterlimit:4;" d="M 190.286134 112.97607 C 190.286134 112.97607 195.226732 101.878845 203.847909 103.116667 C 212.485665 104.35449 224.804001 112.97607 214.939385 109.276995 C 206.318208 115.437323 190.286134 112.97607 190.286134 112.97607 Z M 190.286134 112.97607 " transform="matrix(0.235612,0,0,0.271394,-3.681291,-22.00476)"/>
<path style="fill:none;stroke-width:5.6303;stroke-linecap:butt;stroke-linejoin:miter;stroke:rgb(0%,0%,0%);stroke-opacity:1;stroke-miterlimit:4;" d="M 202.60447 143.806495 L 191.512994 115.437323 C 191.512994 115.437323 214.939385 127.772371 222.333702 133.947092 " transform="matrix(0.235612,0,0,0.271394,-3.681291,-22.00476)"/>
<path style="fill-rule:evenodd;fill:rgb(100%,100%,100%);fill-opacity:0.215686;stroke-width:1.8625;stroke-linecap:butt;stroke-linejoin:round;stroke:rgb(0%,0%,0%);stroke-opacity:1;stroke-miterlimit:4;" d="M 110.274978 184.194063 C 110.274978 184.194063 142.620972 169.671235 149.965551 161.754926 C 157.32671 153.824224 160.261226 148.541887 164.67129 148.541887 C 169.081354 148.541887 266.086176 193.434554 274.906304 197.407102 C 283.726431 201.365256 316.072425 205.323411 295.497654 207.971776 C 274.906304 210.605748 210.247475 207.971776 188.197156 202.689439 C 166.146838 197.407102 110.274978 184.194063 110.274978 184.194063 Z M 110.274978 184.194063 " transform="matrix(0.235612,0,0,0.271394,-3.681291,-22.00476)"/>
<path style="fill:none;stroke-width:1.7;stroke-linecap:round;stroke-linejoin:miter;stroke:rgb(0%,0%,0%);stroke-opacity:1;stroke-miterlimit:4;" d="M 52.015715 105.304447 C 57.00605 98.697928 78.277147 89.414257 84.825926 96.8268 C 86.566741 98.539602 89.733365 106.556663 94.607646 112.587451 C 100.542995 120.662086 102.333547 121.021919 106.16334 123.497564 C 110.540245 127.326179 115.215576 128.218563 119.227739 130.13287 C 125.080192 132.709269 127.931812 132.061571 138.277225 133.141068 C 142.057279 134.119811 147.627886 126.808021 151.756104 124.79296 " transform="matrix(0.235612,0,0,0.271394,-3.681291,-22.00476)"/>
</g>
</svg>
