<?xml version="1.0" encoding="UTF-8"?>
<svg xmlns="http://www.w3.org/2000/svg" xmlns:xlink="http://www.w3.org/1999/xlink" width="60px" height="60px" viewBox="0 0 60 60" version="1.1">
<g id="surface1">
<path style=" stroke:none;fill-rule:nonzero;fill:rgb(0%,0%,0%);fill-opacity:1;" d="M 17.023438 46.515625 C 12.785156 45.957031 8.695312 44.636719 6.089844 42.980469 C 2.457031 40.667969 2.402344 38.496094 5.882812 34.953125 C 7.0625 33.75 9.902344 31.660156 12.195312 30.304688 C 14.484375 28.949219 16.394531 27.816406 16.4375 27.789062 C 16.5625 27.703125 15.375 20.175781 15.054688 19.035156 C 13.964844 15.144531 35.894531 8.816406 39.089844 12.097656 C 39.566406 12.589844 40.09375 13.824219 40.257812 14.84375 C 40.417969 15.859375 40.960938 18.300781 41.457031 20.261719 L 42.359375 23.832031 L 46.882812 24.144531 C 57.816406 24.90625 60.496094 28.566406 54.632812 34.726562 C 53.171875 36.261719 51.132812 38.070312 50.105469 38.75 C 45.625 41.710938 32.402344 45.921875 26.125 46.386719 C 24.40625 46.511719 22.304688 46.679688 21.453125 46.753906 C 20.601562 46.828125 18.605469 46.722656 17.023438 46.515625 Z M 28.03125 44.316406 C 32.21875 43.640625 33.917969 43.1875 41.375 40.757812 C 47.859375 38.644531 56.429688 32.015625 56.429688 29.113281 C 56.429688 27.664062 56.097656 27.703125 55.003906 29.277344 C 53.894531 30.878906 50.203125 33.972656 47.574219 35.507812 C 46.480469 36.144531 45.082031 36.957031 44.46875 37.3125 C 38.15625 40.976562 30.816406 42.976562 22.207031 43.375 C 16.671875 43.628906 15.441406 43.53125 11.933594 42.558594 C 8.285156 41.542969 4.730469 39.765625 5.226562 39.203125 C 5.339844 39.078125 5.996094 39.296875 6.691406 39.691406 C 7.382812 40.089844 9.441406 40.925781 11.269531 41.550781 C 14.316406 42.59375 15.1875 42.664062 21.894531 42.421875 C 31.757812 42.0625 36.742188 40.664062 45.613281 35.78125 C 50.644531 33.011719 55.746094 28.480469 54.863281 27.566406 C 53.898438 26.570312 51.074219 25.890625 46.800781 25.621094 L 42.261719 25.339844 L 42.261719 26.96875 C 42.261719 29.273438 40.933594 31.105469 37.960938 32.902344 C 34.242188 35.152344 30.585938 35.792969 25.15625 35.144531 C 19.382812 34.457031 17.65625 33.648438 17.238281 31.433594 C 16.765625 28.929688 16.710938 28.910156 14.332031 30.277344 C 9.082031 33.296875 4.628906 37.472656 4.628906 39.378906 C 4.628906 40.792969 10.417969 43.953125 14.148438 44.578125 C 17.84375 45.199219 23.195312 45.097656 28.03125 44.316406 Z M 27.5 33.144531 C 26.898438 30.628906 26.785156 29.503906 27.136719 29.503906 C 27.351562 29.503906 27.703125 30.464844 27.917969 31.636719 C 28.261719 33.492188 28.484375 33.792969 29.59375 33.9375 C 30.746094 34.085938 30.84375 33.988281 30.578125 32.933594 C 29.894531 30.199219 29.777344 29 30.195312 29 C 30.4375 29 30.769531 29.941406 30.929688 31.085938 C 31.3125 33.804688 31.40625 33.933594 32.753906 33.640625 C 33.925781 33.386719 33.976562 32.816406 33.121094 29.378906 C 33.003906 28.894531 33.101562 28.5 33.339844 28.5 C 33.582031 28.5 33.917969 29.234375 34.085938 30.132812 C 34.519531 32.433594 35.085938 33.109375 36.078125 32.507812 C 36.753906 32.097656 36.820312 31.746094 36.476562 30.386719 C 35.960938 28.351562 35.953125 27.492188 36.449219 27.492188 C 36.660156 27.492188 36.960938 28.398438 37.117188 29.503906 C 37.429688 31.703125 37.488281 31.757812 38.773438 30.980469 C 39.523438 30.523438 39.609375 30.121094 39.355469 28.214844 C 39.15625 26.710938 39.222656 25.988281 39.554688 25.988281 C 39.824219 25.988281 40.046875 26.679688 40.046875 27.523438 C 40.046875 28.421875 40.230469 28.929688 40.492188 28.75 C 40.964844 28.414062 41.109375 24.34375 40.664062 23.839844 C 40.515625 23.671875 39.667969 24.070312 38.78125 24.726562 C 35.167969 27.398438 31.96875 28.183594 24.621094 28.203125 L 17.824219 28.21875 L 18.074219 29.949219 C 18.453125 32.609375 19.207031 33.039062 18.945312 30.441406 C 18.78125 28.804688 18.84375 28.4375 19.195312 29 C 19.457031 29.414062 19.671875 30.375 19.675781 31.136719 C 19.679688 31.894531 19.765625 32.515625 19.867188 32.515625 C 19.96875 32.515625 20.390625 32.664062 20.800781 32.84375 C 21.460938 33.128906 21.515625 32.917969 21.242188 31.085938 C 21.035156 29.703125 21.09375 29 21.414062 29 C 21.679688 29 21.898438 29.507812 21.902344 30.132812 C 21.914062 32.414062 22.414062 33.523438 23.4375 33.523438 C 24.355469 33.523438 24.40625 33.371094 24.109375 31.511719 C 23.929688 30.40625 23.933594 29.503906 24.117188 29.503906 C 24.300781 29.503906 24.59375 30.347656 24.761719 31.382812 C 25.171875 33.851562 25.292969 34.023438 26.601562 34.023438 C 27.441406 34.023438 27.660156 33.8125 27.5 33.144531 Z M 32.6875 26.695312 C 35.050781 26.039062 39.335938 23.945312 40.152344 23.042969 C 40.683594 22.460938 39.25 14.371094 38.4375 13.355469 C 37.570312 12.269531 35.894531 12.183594 30.910156 12.96875 C 26.984375 13.585938 21.308594 15.507812 18.304688 17.226562 L 16.265625 18.394531 L 16.871094 22.066406 C 17.207031 24.082031 17.542969 25.960938 17.617188 26.238281 C 17.8125 26.941406 24.238281 27.839844 27.429688 27.609375 C 28.890625 27.503906 31.257812 27.09375 32.6875 26.695312 Z M 18.152344 19.996094 C 17.929688 19.589844 19.304688 19.453125 23.078125 19.507812 C 29.019531 19.59375 33.277344 18.667969 36.363281 16.613281 C 37.417969 15.914062 38.277344 15.535156 38.277344 15.765625 C 38.277344 16.367188 34.335938 18.78125 32.742188 19.15625 C 32.011719 19.332031 30.917969 19.613281 30.308594 19.78125 C 28.050781 20.410156 18.46875 20.578125 18.152344 19.996094 Z M 18.152344 19.996094 "/>
</g>
</svg>
