<?xml version="1.0" encoding="UTF-8"?>
<svg xmlns="http://www.w3.org/2000/svg" xmlns:xlink="http://www.w3.org/1999/xlink" width="60px" height="60px" viewBox="0 0 60 60" version="1.1">
<g id="surface1">
<path style="fill:none;stroke-width:1.1304;stroke-linecap:round;stroke-linejoin:miter;stroke:rgb(0%,0%,0%);stroke-opacity:1;stroke-miterlimit:4;" d="M 9.141279 32.257867 L 33.628926 32.257867 " transform="matrix(0.135113,0,0,0.189986,5.206303,5.20739)"/>
<path style="fill:none;stroke-width:1.6992;stroke-linecap:round;stroke-linejoin:miter;stroke:rgb(0%,0%,0%);stroke-opacity:1;stroke-miterlimit:4;" d="M 9.74841 71.261534 L 33.628926 71.261534 " transform="matrix(0.135113,0,0,0.189986,5.206303,5.20739)"/>
<path style="fill:none;stroke-width:1.1304;stroke-linecap:round;stroke-linejoin:miter;stroke:rgb(0%,0%,0%);stroke-opacity:1;stroke-miterlimit:4;" d="M 37.445183 72.248448 L 37.445183 72.248448 M 21.833224 72.31013 C 22.209067 76.36059 25.620569 79.403575 29.639203 79.424136 C 33.975859 79.424136 37.474094 75.908254 37.474094 71.590505 M 37.474094 32.669082 C 37.474094 28.330772 33.975859 24.81489 29.639203 24.81489 C 25.302548 24.81489 21.804313 28.330772 21.804313 32.669082 M 37.474094 32.669082 L 37.474094 71.590505 M 33.628926 32.669082 L 33.628926 71.590505 M 33.628926 32.669082 C 33.628926 31.558803 33.195261 30.551329 32.472485 29.831704 C 31.749709 29.112079 30.737823 28.659743 29.639203 28.659743 C 28.540584 28.659743 27.528698 29.112079 26.805922 29.831704 C 26.083146 30.551329 25.620569 31.558803 25.620569 32.669082 M 25.678391 72.248448 C 25.822947 73.091437 26.227701 73.831623 26.805922 74.407322 C 27.528698 75.147508 28.540584 75.579283 29.639203 75.579283 C 30.737823 75.579283 31.749709 75.147508 32.472485 74.407322 C 33.195261 73.687698 33.628926 72.680223 33.628926 71.590505 M 8.563058 96.9213 L 33.45546 99.53251 " transform="matrix(0.135113,0,0,0.189986,5.206303,5.20739)"/>
<path style="fill:none;stroke-width:1.6992;stroke-linecap:round;stroke-linejoin:miter;stroke:rgb(0%,0%,0%);stroke-opacity:1;stroke-miterlimit:4;" d="M 4.949178 135.76048 L 29.379004 138.330569 " transform="matrix(0.135113,0,0,0.189986,5.206303,5.20739)"/>
<path style="fill:none;stroke-width:1.1304;stroke-linecap:round;stroke-linejoin:miter;stroke:rgb(0%,0%,0%);stroke-opacity:1;stroke-miterlimit:4;" d="M 33.079617 139.728697 L 33.050706 139.728697 M 17.525479 138.124962 C 17.525479 138.166083 17.525479 138.207205 17.525479 138.227766 C 17.525479 142.566075 21.052626 146.061396 25.36037 146.061396 C 29.407915 146.061396 32.732684 143.018411 33.16635 139.050194 M 37.271717 99.53251 C 37.271717 95.1942 33.773482 91.678319 29.436826 91.678319 C 25.389281 91.678319 22.064512 94.741864 21.630846 98.710081 M 37.242806 100.354938 C 37.271717 100.067088 37.271717 99.779238 37.271717 99.53251 M 37.242806 100.354938 L 33.16635 139.050194 M 33.426549 99.943724 L 29.350093 138.659541 M 33.426549 99.943724 C 33.542193 98.854006 33.195261 97.80541 32.559218 97.003543 C 31.923175 96.201675 30.969111 95.667096 29.870492 95.543732 C 28.771872 95.420368 27.731075 95.7699 26.921566 96.407282 C 26.112057 97.065225 25.562747 98.011017 25.447103 99.100735 M 21.370647 138.495055 C 21.428469 139.338044 21.74649 140.119351 22.266889 140.756733 C 22.902932 141.558601 23.856996 142.093179 24.955615 142.216543 C 26.054235 142.339908 27.095032 141.990376 27.904541 141.352994 C 28.685139 140.695051 29.234449 139.749258 29.350093 138.659541 " transform="matrix(0.135113,0,0,0.189986,5.206303,5.20739)"/>
<path style="fill:none;stroke-width:1.6992;stroke-linecap:round;stroke-linejoin:miter;stroke:rgb(0%,0%,0%);stroke-opacity:1;stroke-miterlimit:4;" d="M 3.995114 260.132214 L 120.76679 260.132214 M 210.217536 260.132214 L 366.163667 260.132214 " transform="matrix(0.135113,0,0,0.189986,5.206303,5.20739)"/>
<path style="fill:none;stroke-width:1.1304;stroke-linecap:round;stroke-linejoin:miter;stroke:rgb(0%,0%,0%);stroke-opacity:1;stroke-miterlimit:4;" d="M 3.995114 260.132214 L 3.995114 226.98835 " transform="matrix(0.135113,0,0,0.189986,5.206303,5.20739)"/>
<path style="fill:none;stroke-width:0.7056;stroke-linecap:round;stroke-linejoin:miter;stroke:rgb(0%,0%,0%);stroke-opacity:1;stroke-miterlimit:4;" d="M 3.966203 231.121052 L 114.290718 231.121052 C 186.712864 231.593949 182.98334 244.218225 251.675963 243.272432 L 366.163667 243.272432 " transform="matrix(0.135113,0,0,0.189986,5.206303,5.20739)"/>
<path style="fill:none;stroke-width:1.6992;stroke-linecap:round;stroke-linejoin:miter;stroke:rgb(0%,0%,0%);stroke-opacity:1;stroke-miterlimit:4;" d="M 366.163667 239.078047 L 366.163667 260.132214 " transform="matrix(0.135113,0,0,0.189986,5.206303,5.20739)"/>
<path style="fill:none;stroke-width:0.7056;stroke-linecap:round;stroke-linejoin:miter;stroke:rgb(0%,0%,0%);stroke-opacity:1;stroke-miterlimit:4;" d="M 251.675963 239.078047 L 366.163667 239.078047 M 114.319629 226.926668 C 150.429513 227.152835 167.805046 230.380867 184.486714 233.485534 C 201.226204 236.590201 217.242918 239.530383 251.61814 239.078047 M 4.024025 226.926668 L 114.290718 226.926668 " transform="matrix(0.135113,0,0,0.189986,5.206303,5.20739)"/>
<path style="fill:none;stroke-width:1.1304;stroke-linecap:round;stroke-linejoin:miter;stroke:rgb(0%,0%,0%);stroke-opacity:1;stroke-miterlimit:4;" d="M 366.163667 239.078047 L 359.369573 239.078047 C 364.255538 225.281811 364.86267 212.822021 363.648406 205.708015 C 362.491965 198.59401 352.980234 175.463211 325.717127 173.69499 C 288.450801 171.268826 271.769133 167.177245 253.381714 156.506237 C 234.994295 145.814668 164.451366 104.323155 153.754282 94.824107 C 143.08611 85.34562 140.108273 73.482091 139.530053 64.003603 C 138.951832 54.504555 139.530053 21.299009 139.530053 14.185004 M 131.232585 14.781264 C 127.676528 6.474737 115.215871 1.149514 103.362346 2.321474 C 91.508821 3.513995 76.099239 4.110256 63.638582 7.070998 C 51.177925 10.03174 31.605154 13.013043 25.678391 11.820522 C 19.751629 10.628001 13.824866 15.377525 14.431998 22.49153 C 14.547642 24.177508 14.721109 27.652268 14.894575 32.216746 M 15.501707 71.282095 C 15.443885 77.265261 15.299329 82.775531 15.010219 87.113841 C 14.836753 89.97178 14.576553 93.508222 14.287443 97.51756 M 10.644652 136.377302 C 9.228012 148.446438 7.580083 158.850158 5.874331 163.229589 M 3.156694 163.620242 C 0.178857 175.463211 -1.064317 217.304255 3.995114 226.926668 M 3.156694 163.620242 C 29.841581 165.388463 71.271096 172.070694 77.51588 226.782743 M 3.156694 163.620242 C 29.841581 165.388463 71.271096 172.070694 77.51588 226.782743 M 3.156694 163.620242 C 29.841581 165.388463 71.271096 172.070694 77.51588 226.782743 " transform="matrix(0.135113,0,0,0.189986,5.206303,5.20739)"/>
<path style="fill:none;stroke-width:0.7056;stroke-linecap:round;stroke-linejoin:miter;stroke:rgb(0%,0%,0%);stroke-opacity:1;stroke-dasharray:7.2,3.6;stroke-miterlimit:4;" d="M 2.896495 167.32117 C 15.501707 168.164159 31.518421 170.076305 45.251163 178.05386 C 50.975548 181.384695 56.295179 185.764127 60.77639 191.623929 C 67.107906 199.848213 71.560206 210.251932 73.439423 225.076204 " transform="matrix(0.135113,0,0,0.189986,5.206303,5.20739)"/>
<path style="fill:none;stroke-width:0.7056;stroke-linecap:round;stroke-linejoin:miter;stroke:rgb(0%,0%,0%);stroke-opacity:1;stroke-miterlimit:4;" d="M 73.439423 225.076204 C 73.497246 225.5491 73.555068 226.021996 73.61289 226.515453 " transform="matrix(0.135113,0,0,0.189986,5.206303,5.20739)"/>
<path style="fill:none;stroke-width:1.1304;stroke-linecap:round;stroke-linejoin:miter;stroke:rgb(0%,0%,0%);stroke-opacity:1;stroke-miterlimit:4;" d="M 254.653799 165.038931 C 259.337387 167.136124 264.020975 168.698738 257.255793 174.414615 C 250.49061 180.151053 246.327421 182.762263 235.890537 182.762263 C 225.482564 182.762263 190.558032 182.227685 167.140092 185.887491 C 143.693242 189.526737 94.197548 203.590262 94.197548 226.515453 " transform="matrix(0.135113,0,0,0.189986,5.206303,5.20739)"/>
<path style="fill:none;stroke-width:0.7056;stroke-linecap:round;stroke-linejoin:miter;stroke:rgb(0%,0%,0%);stroke-opacity:1;stroke-dasharray:7.2,3.6;stroke-miterlimit:4;" d="M 252.658938 169.541727 L 253.439536 169.870698 C 254.567066 170.364155 255.694597 170.754808 256.35955 171.351069 L 255.896974 168.801541 C 255.607864 169.35668 254.971821 169.911819 254.075579 170.672566 C 248.322282 175.545454 244.766225 177.848253 235.890537 177.848253 L 235.919448 177.848253 L 232.36339 177.827693 C 218.890847 177.786571 187.869305 177.683768 166.359494 181.014603 C 149.359805 183.666934 119.147772 191.726732 102.523926 204.41269 C 96.915185 208.689318 92.780907 213.541646 90.757134 218.764066 C 89.976536 220.799576 89.485049 222.896768 89.311582 225.076204 " transform="matrix(0.135113,0,0,0.189986,5.206303,5.20739)"/>
<path style="fill:none;stroke-width:0.7056;stroke-linecap:round;stroke-linejoin:miter;stroke:rgb(0%,0%,0%);stroke-opacity:1;stroke-miterlimit:4;" d="M 89.311582 225.076204 C 89.282671 225.5491 89.282671 226.021996 89.282671 226.515453 " transform="matrix(0.135113,0,0,0.189986,5.206303,5.20739)"/>
<path style="fill:none;stroke-width:1.6992;stroke-linecap:round;stroke-linejoin:miter;stroke:rgb(0%,0%,0%);stroke-opacity:1;stroke-miterlimit:4;" d="M 120.76679 245.266821 L 120.76679 260.132214 M 120.76679 245.266821 C 185.672067 248.248124 184.313248 255.691101 210.072981 260.111653 " transform="matrix(0.135113,0,0,0.189986,5.206303,5.20739)"/>
<path style="fill:none;stroke-width:1.1304;stroke-linecap:round;stroke-linejoin:miter;stroke:rgb(0%,0%,0%);stroke-opacity:1;stroke-miterlimit:4;" d="M 131.232585 14.781264 C 131.984272 24.239191 131.984272 41.962522 131.08803 47.740082 C 130.191788 53.497081 130.191788 65.031639 130.654364 70.788638 C 131.08803 76.545636 133.747845 88.080194 140.397384 94.289529 C 147.046922 100.498863 167.429203 114.233417 176.738556 119.558641 C 186.04791 124.883865 246.992375 160.865107 254.653799 165.038931 " transform="matrix(0.135113,0,0,0.189986,5.206303,5.20739)"/>
<path style="fill:none;stroke-width:0.7056;stroke-linecap:round;stroke-linejoin:miter;stroke:rgb(0%,0%,0%);stroke-opacity:1;stroke-dasharray:7.2,3.6;stroke-miterlimit:4;" d="M 126.202065 14.431732 C 126.89593 23.478444 126.953752 40.44103 126.115332 45.9513 C 125.161267 52.078392 125.132356 64.312014 125.623844 70.418545 C 126.144243 77.203579 129.497923 90.670844 137.303903 97.969896 C 144.184729 104.364277 165.203053 118.592288 174.801517 124.061437 C 174.801517 124.061437 241.354723 162.921178 251.386852 168.801541 " transform="matrix(0.135113,0,0,0.189986,5.206303,5.20739)"/>
<path style="fill:none;stroke-width:0.7056;stroke-linecap:round;stroke-linejoin:miter;stroke:rgb(0%,0%,0%);stroke-opacity:1;stroke-miterlimit:4;" d="M 251.415763 168.801541 C 252.196361 169.274437 252.658938 169.541727 252.658938 169.541727 M 185.440778 135.369827 C 185.440778 134.074502 185.122757 132.84086 184.544536 131.792263 M 178.617774 127.782925 C 178.328663 127.762364 178.039553 127.741804 177.808265 127.741804 C 173.587253 127.741804 170.175751 131.175442 170.175751 135.369827 C 170.175751 139.605333 173.587253 143.038972 177.808265 143.038972 C 182.029276 143.038972 185.440778 139.605333 185.440778 135.369827 M 182.752052 135.369827 C 182.752052 135.102538 182.723141 134.814688 182.69423 134.567959 M 176.738556 130.558621 C 174.425673 131.052078 172.864477 133.087588 172.864477 135.369827 C 172.864477 138.124962 175.061716 140.324958 177.808265 140.324958 C 180.525902 140.324958 182.752052 138.124962 182.752052 135.369827 " transform="matrix(0.135113,0,0,0.189986,5.206303,5.20739)"/>
<path style="fill-rule:nonzero;fill:rgb(100%,100%,100%);fill-opacity:1;stroke-width:0.7056;stroke-linecap:round;stroke-linejoin:miter;stroke:rgb(0%,0%,0%);stroke-opacity:1;stroke-miterlimit:4;" d="M 181.653433 136.110013 C 180.988479 137.076366 179.889859 137.693187 178.675596 137.693187 C 176.680734 137.693187 175.090627 136.089452 175.090627 134.115624 C 175.090627 133.43712 175.264093 132.717495 175.697759 132.100674 L 187.811483 114.110053 C 188.476437 113.16426 189.546145 112.547439 190.78932 112.547439 C 192.784182 112.547439 194.4032 114.130614 194.4032 116.125003 C 194.4032 116.803506 194.200822 117.50257 193.767157 118.139952 L 181.653433 136.110013 " transform="matrix(0.135113,0,0,0.189986,5.206303,5.20739)"/>
<path style="fill:none;stroke-width:0.7056;stroke-linecap:round;stroke-linejoin:miter;stroke:rgb(0%,0%,0%);stroke-opacity:1;stroke-miterlimit:4;" d="M 215.681722 152.455777 C 215.681722 151.139891 215.363701 149.906249 214.78548 148.878213 M 208.829807 144.868875 C 208.569607 144.827753 208.280497 144.827753 208.049209 144.827753 C 203.828197 144.827753 200.387784 148.240831 200.387784 152.455777 C 200.387784 156.670722 203.828197 160.104361 208.049209 160.104361 C 212.27022 160.104361 215.681722 156.670722 215.681722 152.455777 M 212.992996 152.455777 C 212.992996 152.167927 212.964085 151.880077 212.906263 151.633348 M 206.9795 147.62401 C 204.666617 148.138028 203.105421 150.173538 203.07651 152.455777 C 203.07651 155.190351 205.30266 157.410908 208.049209 157.410908 C 210.766846 157.410908 212.992996 155.190351 212.992996 152.455777 " transform="matrix(0.135113,0,0,0.189986,5.206303,5.20739)"/>
<path style="fill-rule:nonzero;fill:rgb(100%,100%,100%);fill-opacity:1;stroke-width:0.7056;stroke-linecap:round;stroke-linejoin:miter;stroke:rgb(0%,0%,0%);stroke-opacity:1;stroke-miterlimit:4;" d="M 211.865466 153.195962 C 211.229423 154.141755 210.130803 154.779137 208.887629 154.779137 C 206.921678 154.779137 205.30266 153.154841 205.30266 151.181013 C 205.30266 150.502509 205.505038 149.803445 205.909792 149.186624 L 218.052427 131.196003 C 218.717381 130.22965 219.787089 129.612828 221.030264 129.612828 C 222.996214 129.612828 224.615233 131.216564 224.615233 133.190392 C 224.615233 133.889456 224.412855 134.58852 224.008101 135.205341 L 211.865466 153.195962 " transform="matrix(0.135113,0,0,0.189986,5.206303,5.20739)"/>
<path style="fill:none;stroke-width:0.7056;stroke-linecap:round;stroke-linejoin:miter;stroke:rgb(0%,0%,0%);stroke-opacity:1;stroke-miterlimit:4;" d="M 245.922666 169.541727 C 245.922666 168.225841 245.575734 166.992199 245.026424 165.943602 M 239.070751 161.934264 C 238.78164 161.913703 238.521441 161.893143 238.261242 161.893143 C 234.04023 161.893143 230.628728 165.326781 230.628728 169.541727 C 230.628728 173.756672 234.04023 177.16975 238.261242 177.16975 C 242.482253 177.16975 245.922666 173.756672 245.922666 169.541727 M 243.23394 169.541727 C 243.23394 169.233316 243.176118 168.966027 243.147207 168.719298 M 237.191533 164.70996 C 234.907561 165.203417 233.317454 167.238927 233.317454 169.541727 C 233.317454 172.276301 235.543604 174.476297 238.261242 174.476297 C 241.00779 174.476297 243.23394 172.276301 243.23394 169.541727 " transform="matrix(0.135113,0,0,0.189986,5.206303,5.20739)"/>
<path style="fill-rule:nonzero;fill:rgb(100%,100%,100%);fill-opacity:1;stroke-width:0.7056;stroke-linecap:round;stroke-linejoin:miter;stroke:rgb(0%,0%,0%);stroke-opacity:1;stroke-miterlimit:4;" d="M 242.10641 170.261351 C 241.441456 171.227705 240.371747 171.844526 239.128573 171.844526 C 237.162622 171.844526 235.543604 170.240791 235.543604 168.266963 C 235.543604 167.588459 235.745982 166.868834 236.150736 166.252013 L 248.293371 148.261392 C 248.929414 147.315599 250.028033 146.678217 251.271208 146.678217 C 253.237159 146.678217 254.856177 148.281953 254.856177 150.276342 C 254.856177 150.954845 254.653799 151.653909 254.220134 152.27073 L 242.10641 170.261351 " transform="matrix(0.135113,0,0,0.189986,5.206303,5.20739)"/>
<path style="fill:none;stroke-width:0.7056;stroke-linecap:round;stroke-linejoin:miter;stroke:rgb(0%,0%,0%);stroke-opacity:1;stroke-miterlimit:4;" d="M 155.3733 117.255842 C 155.3733 115.939956 155.026368 114.706314 154.477058 113.657717 M 148.521385 109.648379 C 148.261186 109.627818 147.972075 109.607258 147.740787 109.607258 C 143.519776 109.607258 140.079362 113.020335 140.079362 117.235281 C 140.079362 121.450226 143.519776 124.883865 147.740787 124.883865 C 151.961798 124.883865 155.3733 121.450226 155.3733 117.235281 M 152.684574 117.255842 C 152.684574 116.967992 152.655663 116.680142 152.597841 116.412853 M 146.671079 112.403514 C 144.358196 112.917532 142.797 114.953042 142.768089 117.255842 C 142.768089 119.969855 144.994238 122.190412 147.740787 122.190412 C 150.458424 122.190412 152.684574 119.969855 152.684574 117.255842 " transform="matrix(0.135113,0,0,0.189986,5.206303,5.20739)"/>
<path style="fill-rule:nonzero;fill:rgb(100%,100%,100%);fill-opacity:1;stroke-width:0.7056;stroke-linecap:round;stroke-linejoin:miter;stroke:rgb(0%,0%,0%);stroke-opacity:1;stroke-miterlimit:4;" d="M 151.557044 117.975466 C 150.921001 118.94182 149.822381 119.558641 148.579207 119.558641 C 146.613256 119.558641 144.994238 117.954906 144.994238 115.960517 C 144.994238 115.282014 145.196616 114.582949 145.60137 113.966128 L 157.744005 95.975507 C 158.408959 95.029714 159.478668 94.392332 160.721842 94.392332 C 162.687793 94.392332 164.306811 95.996068 164.306811 97.990457 C 164.306811 98.66896 164.104433 99.368024 163.699679 99.984845 L 151.557044 117.975466 " transform="matrix(0.135113,0,0,0.189986,5.206303,5.20739)"/>
<path style="fill:none;stroke-width:0.7056;stroke-linecap:round;stroke-linejoin:miter;stroke:rgb(0%,0%,0%);stroke-opacity:1;stroke-miterlimit:4;" d="M 127.127218 83.783006 C 125.739488 82.796092 124.178292 82.323196 122.617096 82.323196 C 118.396085 82.323196 114.984583 85.756834 114.984583 89.97178 C 114.984583 94.186725 118.396085 97.599803 122.617096 97.599803 C 126.751374 97.599803 130.133966 94.33065 130.24961 90.239069 M 124.12047 85.242817 C 123.600072 85.098892 123.079673 85.016649 122.617096 85.016649 C 119.899459 85.016649 117.673309 87.237205 117.673309 89.97178 C 117.673309 92.706354 119.899459 94.90635 122.617096 94.90635 C 124.727602 94.90635 126.548997 93.590465 127.271773 91.698879 " transform="matrix(0.135113,0,0,0.189986,5.206303,5.20739)"/>
<path style="fill-rule:nonzero;fill:rgb(100%,100%,100%);fill-opacity:1;stroke-width:0.7056;stroke-linecap:round;stroke-linejoin:miter;stroke:rgb(0%,0%,0%);stroke-opacity:1;stroke-miterlimit:4;" d="M 125.566022 92.521308 C 124.554136 93.014765 123.28205 93.014765 122.212342 92.397944 C 120.506591 91.411029 119.899459 89.211034 120.911345 87.504495 C 121.229367 86.908234 121.749765 86.394216 122.44363 86.065245 L 141.929669 76.566197 C 142.970466 76.052179 144.242551 76.052179 145.31226 76.669001 C 147.018011 77.676475 147.596232 79.855911 146.613256 81.58301 C 146.266324 82.179271 145.745925 82.672728 145.080972 83.001699 L 125.566022 92.521308 " transform="matrix(0.135113,0,0,0.189986,5.206303,5.20739)"/>
<path style="fill:none;stroke-width:0.7056;stroke-linecap:round;stroke-linejoin:miter;stroke:rgb(0%,0%,0%);stroke-opacity:1;stroke-miterlimit:4;" d="M 124.380669 51.708299 C 122.99294 49.261574 120.419858 47.904568 117.760042 47.884007 C 113.539031 47.884007 110.127529 51.297085 110.127529 55.532591 C 110.127529 59.747536 113.539031 63.160614 117.760042 63.160614 C 120.76679 63.160614 123.368783 61.433515 124.640869 58.863426 M 121.0559 51.811102 C 120.101836 50.988674 118.916484 50.57746 117.760042 50.57746 C 115.042405 50.57746 112.816255 52.798017 112.816255 55.532591 C 112.816255 58.267165 115.042405 60.467161 117.760042 60.467161 C 119.147772 60.467161 120.419858 59.912022 121.3161 58.98679 " transform="matrix(0.135113,0,0,0.189986,5.206303,5.20739)"/>
<path style="fill-rule:nonzero;fill:rgb(100%,100%,100%);fill-opacity:1;stroke-width:0.7056;stroke-linecap:round;stroke-linejoin:miter;stroke:rgb(0%,0%,0%);stroke-opacity:1;stroke-miterlimit:4;" d="M 119.436882 59.048472 C 118.280441 59.089594 117.123999 58.575576 116.401223 57.588662 C 115.244782 55.984927 115.591714 53.743809 117.210732 52.571849 C 117.760042 52.160635 118.453907 51.913906 119.176683 51.893345 L 140.85996 51.132599 C 142.016402 51.091478 143.172843 51.605495 143.895619 52.61297 C 145.05206 54.216705 144.705128 56.457823 143.08611 57.609223 C 142.5368 58.020437 141.871846 58.267165 141.12016 58.308287 L 119.436882 59.048472 " transform="matrix(0.135113,0,0,0.189986,5.206303,5.20739)"/>
<path style="fill:none;stroke-width:0.7056;stroke-linecap:round;stroke-linejoin:miter;stroke:rgb(0%,0%,0%);stroke-opacity:1;stroke-miterlimit:4;" d="M 124.380669 18.770042 C 122.99294 16.343878 120.419858 14.986871 117.760042 14.966311 C 113.539031 14.966311 110.127529 18.379388 110.127529 22.594334 C 110.127529 26.82984 113.539031 30.242918 117.760042 30.242918 C 120.76679 30.242918 123.368783 28.515818 124.640869 25.94573 M 121.0559 18.893406 C 120.101836 18.070978 118.916484 17.659763 117.760042 17.659763 C 115.042405 17.659763 112.816255 19.88032 112.816255 22.594334 C 112.816255 25.328908 115.042405 27.549465 117.760042 27.549465 C 119.147772 27.549465 120.419858 26.973765 121.3161 26.069094 " transform="matrix(0.135113,0,0,0.189986,5.206303,5.20739)"/>
<path style="fill-rule:nonzero;fill:rgb(100%,100%,100%);fill-opacity:1;stroke-width:0.7056;stroke-linecap:round;stroke-linejoin:miter;stroke:rgb(0%,0%,0%);stroke-opacity:1;stroke-miterlimit:4;" d="M 119.436882 26.130776 C 118.280441 26.171897 117.123999 25.65788 116.401223 24.650405 C 115.244782 23.046669 115.591714 20.805552 117.210732 19.654152 C 117.760042 19.242938 118.453907 18.99621 119.176683 18.955088 L 140.85996 18.214903 C 142.016402 18.173781 143.172843 18.687799 143.895619 19.674713 C 145.05206 21.278448 144.705128 23.540126 143.08611 24.691526 C 142.5368 25.10274 141.871846 25.349469 141.12016 25.37003 L 119.436882 26.130776 " transform="matrix(0.135113,0,0,0.189986,5.206303,5.20739)"/>
<path style="fill:none;stroke-width:1.1304;stroke-linecap:round;stroke-linejoin:miter;stroke:rgb(0%,0%,0%);stroke-opacity:1;stroke-miterlimit:4;" d="M 131.695162 16.631728 C 133.111802 15.685935 137.332814 17.125185 139.530053 14.185004 C 141.727291 11.265383 142.681356 5.899038 141.727291 4.254181 C 140.802138 2.629885 142.681356 -2.757021 117.470932 3.555117 " transform="matrix(0.135113,0,0,0.189986,5.206303,5.20739)"/>
<path style="fill:none;stroke-width:0.7056;stroke-linecap:round;stroke-linejoin:miter;stroke:rgb(0%,0%,0%);stroke-opacity:1;stroke-miterlimit:4;" d="M 129.815944 13.814911 C 130.307432 13.485939 130.914564 13.21865 131.63734 13.054165 C 132.273382 12.9308 133.082891 12.869118 133.921311 12.848557 C 134.730821 12.807436 135.655974 12.889679 136.465483 12.457904 C 136.610038 12.396222 136.725682 12.293418 136.812415 12.149493 C 137.968857 10.60744 138.63381 8.181276 138.691632 6.433616 C 138.720544 6.228009 138.865099 6.042962 138.807277 5.940159 C 138.662721 5.67287 138.518166 5.38502 138.402522 5.076609 C 138.3447 4.912123 138.286878 4.727077 138.229056 4.542031 C 138.200145 4.439227 138.171234 4.315863 138.113412 4.192499 L 138.257967 4.377545 C 136.696771 3.287827 132.880514 3.390631 122.241253 5.878477 " transform="matrix(0.135113,0,0,0.189986,5.206303,5.20739)"/>
<path style=" stroke:none;fill-rule:nonzero;fill:rgb(100%,100%,100%);fill-opacity:1;" d="M 19.515625 37.066406 L 21.273438 37.066406 L 21.273438 34.597656 L 19.515625 34.597656 Z M 19.515625 37.066406 "/>
<path style="fill:none;stroke-width:1.1304;stroke-linecap:round;stroke-linejoin:miter;stroke:rgb(0%,0%,0%);stroke-opacity:1;stroke-miterlimit:4;" d="M 9.141279 32.196185 C 9.517122 42.373737 9.864055 57.958755 9.74841 71.261534 M 8.563058 96.900739 C 7.724638 108.024083 6.452552 122.807233 4.949178 135.781041 " transform="matrix(0.135113,0,0,0.189986,5.206303,5.20739)"/>
</g>
</svg>
